<?xml version="1.0" encoding="utf-8"?>
<!-- Generator: Adobe Illustrator 28.0.0, SVG Export Plug-In . SVG Version: 6.00 Build 0)  -->
<svg version="1.1" id="Слой_1" xmlns="http://www.w3.org/2000/svg" xmlns:xlink="http://www.w3.org/1999/xlink" x="0px" y="0px"
	 viewBox="0 0 32.9 32.9" style="enable-background:new 0 0 32.9 32.9;" xml:space="preserve">
<g id="circle139">
	<path d="M16.4,32.9c-2.9,0-5.7-0.7-8.2-2.2c-3.8-2.2-6.5-5.8-7.7-10C-0.6,16.5,0,12.1,2.2,8.2s5.8-6.5,10-7.7
		c4.2-1.1,8.7-0.6,12.5,1.6c3.8,2.2,6.5,5.8,7.7,10c1.1,4.2,0.6,8.7-1.6,12.5s-5.8,6.5-10,7.7C19.3,32.8,17.9,32.9,16.4,32.9z
		 M16.5,1.5c-1.3,0-2.6,0.2-3.9,0.5c-3.9,1-7.1,3.5-9.1,7S1,16.5,2,20.3s3.5,7.1,7,9.1c3.5,2,7.5,2.5,11.4,1.5c3.9-1,7.1-3.5,9.1-7
		s2.5-7.5,1.5-11.4s-3.5-7.1-7-9.1C21.7,2.2,19.1,1.5,16.5,1.5z"/>
</g>
</svg>
